<svg viewBox="0 0 1200 880" width="100%" xmlns="http://www.w3.org/2000/svg" font-family="-apple-system,BlinkMacSystemFont,'Segoe UI','PingFang SC','Microsoft YaHei',Arial,sans-serif"><defs>
    <pattern id="grid" width="30" height="30" patternUnits="userSpaceOnUse"><path d="M30 0H0V30" fill="none" stroke="#efe8db" stroke-width="1"/></pattern>
    <filter id="sh" x="-12%" y="-12%" width="124%" height="124%"><feDropShadow dx="0" dy="3" stdDeviation="4.5" flood-color="#3c2d14" flood-opacity=".11"/></filter>
    <marker id="a" markerWidth="11" markerHeight="11" refX="7.5" refY="3.6" orient="auto"><path d="M0,0 L7.5,3.6 L0,7.2 Z" fill="#6d3fd4"/></marker><marker id="g" markerWidth="11" markerHeight="11" refX="7.5" refY="3.6" orient="auto"><path d="M0,0 L7.5,3.6 L0,7.2 Z" fill="#1a7d52"/></marker><marker id="o" markerWidth="11" markerHeight="11" refX="7.5" refY="3.6" orient="auto"><path d="M0,0 L7.5,3.6 L0,7.2 Z" fill="#bc5a16"/></marker><marker id="t" markerWidth="11" markerHeight="11" refX="7.5" refY="3.6" orient="auto"><path d="M0,0 L7.5,3.6 L0,7.2 Z" fill="#1474a6"/></marker><marker id="k" markerWidth="11" markerHeight="11" refX="7.5" refY="3.6" orient="auto"><path d="M0,0 L7.5,3.6 L0,7.2 Z" fill="#6b6357"/></marker><marker id="d" markerWidth="11" markerHeight="11" refX="7.5" refY="3.6" orient="auto"><path d="M0,0 L7.5,3.6 L0,7.2 Z" fill="#0f7a6b"/></marker><marker id="p" markerWidth="11" markerHeight="11" refX="7.5" refY="3.6" orient="auto"><path d="M0,0 L7.5,3.6 L0,7.2 Z" fill="#9a6a12"/></marker><marker id="r" markerWidth="11" markerHeight="11" refX="7.5" refY="3.6" orient="auto"><path d="M0,0 L7.5,3.6 L0,7.2 Z" fill="#c14545"/></marker>
  </defs><rect width="1200" height="880" rx="20" fill="#fffdf8"/><rect width="1200" height="880" rx="20" fill="url(#grid)" opacity=".7"/><text x="54" y="50" text-anchor="start" font-size="22" font-weight="800" fill="#221f1a">Data Wiki × Theme Wiki × IR 中间关系层 —— 组成图</text><text x="54" y="76" text-anchor="start" font-size="13" font-weight="400" fill="#6b6357">两个 wiki 各自是散落、不对齐、非表格的子域容器（同图 7 σ_out 视觉语言）；</text><text x="54" y="95" text-anchor="start" font-size="13" font-weight="400" fill="#6b6357">IR 是唯一显式耦合点：给定 theme，查 semantic join 命中集 + 5W+1H，其余部分保持正交独立（P17）。</text><rect x="40" y="128" width="360" height="340" rx="12" fill="#fbfaf6" stroke="#e6dfd1" stroke-width="1.6" opacity="1" filter="url(#sh)"/><text x="56" y="152" text-anchor="start" font-size="12" font-weight="700" fill="#6b6357" font-family="ui-monospace,Menlo,monospace">Data Wiki（承 D2）—— 数据是什么</text><rect x="60" y="170" width="150" height="56" rx="10" fill="#ddeff8" stroke="#1474a6" stroke-width="1.5" opacity="1" filter="url(#sh)"/><text x="70" y="193.52" text-anchor="start" font-size="11.5" font-weight="800" fill="#0f5e87">Σ(销售流水)</text><text x="70" y="208.52" text-anchor="start" font-size="9.6" font-weight="400" fill="#0f5e87">summary·σ·κ·FK</text><rect x="230" y="162" width="150" height="50" rx="10" fill="#f6efdf" stroke="#9a6a12" stroke-width="1.5" opacity="1" filter="url(#sh)"/><text x="240" y="183" text-anchor="start" font-size="11.5" font-weight="800" fill="#7a530d">Σ(库存表)</text><text x="240" y="198" text-anchor="start" font-size="9.6" font-weight="400" fill="#7a530d">summary·σ·κ·FK</text><rect x="56" y="244" width="160" height="56" rx="10" fill="#e3f4f0" stroke="#0f7a6b" stroke-width="1.5" opacity="1" filter="url(#sh)"/><text x="66" y="267.52" text-anchor="start" font-size="11.5" font-weight="800" fill="#0b5e53">Σ(CRM客户)</text><text x="66" y="282.52" text-anchor="start" font-size="9.6" font-weight="400" fill="#0b5e53">summary·σ·κ·FK</text><rect x="236" y="260" width="144" height="60" rx="10" fill="#fbe7d3" stroke="#bc5a16" stroke-width="1.5" opacity="1" filter="url(#sh)"/><text x="246" y="285.2" text-anchor="start" font-size="11.5" font-weight="800" fill="#9a4d12">Σ(供应链)</text><text x="246" y="300.2" text-anchor="start" font-size="9.6" font-weight="400" fill="#9a4d12">summary·σ·κ·FK</text><rect x="80" y="334" width="270" height="56" rx="10" fill="#fff2e6" stroke="#bc5a16" stroke-width="1.5" opacity="1" filter="url(#sh)"/><text x="90" y="357.52" text-anchor="start" font-size="11.5" font-weight="800" fill="#9a4d12">月度报表规范</text><text x="90" y="372.52" text-anchor="start" font-size="9.6" font-weight="400" fill="#9a4d12">来源·频率·维护·时效</text><rect x="800" y="128" width="360" height="340" rx="12" fill="#fbfaf6" stroke="#e6dfd1" stroke-width="1.6" opacity="1" filter="url(#sh)"/><text x="816" y="152" text-anchor="start" font-size="12" font-weight="700" fill="#6b6357" font-family="ui-monospace,Menlo,monospace">Theme Wiki（承 D3 产出侧）—— 产出该长什么样</text><rect x="820" y="170" width="160" height="54" rx="10" fill="#ddeff8" stroke="#1474a6" stroke-width="1.5" opacity="1" filter="url(#sh)"/><text x="830" y="192.68" text-anchor="start" font-size="11.5" font-weight="800" fill="#0f5e87">季度报表模板</text><text x="830" y="207.68" text-anchor="start" font-size="9.6" font-weight="400" fill="#0f5e87">σ_out·报表子域</text><rect x="998" y="164" width="144" height="48" rx="10" fill="#f6efdf" stroke="#9a6a12" stroke-width="1.5" opacity="1" filter="url(#sh)"/><text x="1008" y="184.16" text-anchor="start" font-size="11.5" font-weight="800" fill="#7a530d">KPI 图表模板</text><text x="1008" y="199.16" text-anchor="start" font-size="9.6" font-weight="400" fill="#7a530d">σ_out·图表子域</text><rect x="818" y="242" width="150" height="54" rx="10" fill="#e3f4f0" stroke="#0f7a6b" stroke-width="1.5" opacity="1" filter="url(#sh)"/><text x="828" y="264.68" text-anchor="start" font-size="11.5" font-weight="800" fill="#0b5e53">董事会 PPT</text><text x="828" y="279.68" text-anchor="start" font-size="9.6" font-weight="400" fill="#0b5e53">σ_out·PPT子域</text><rect x="988" y="258" width="154" height="58" rx="10" fill="#fbe7d3" stroke="#bc5a16" stroke-width="1.5" opacity="1" filter="url(#sh)"/><text x="998" y="282.36" text-anchor="start" font-size="11.5" font-weight="800" fill="#9a4d12">分析报告框架</text><text x="998" y="297.36" text-anchor="start" font-size="9.6" font-weight="400" fill="#9a4d12">σ_out·报告子域</text><rect x="840" y="334" width="270" height="56" rx="10" fill="#e6f4ec" stroke="#1a7d52" stroke-width="1.5" opacity="1" filter="url(#sh)"/><text x="850" y="357.52" text-anchor="start" font-size="11.5" font-weight="800" fill="#11603d">预测模型程序</text><text x="850" y="372.52" text-anchor="start" font-size="9.6" font-weight="400" fill="#11603d">σ_out·模型子域</text><rect x="432" y="158" width="336" height="280" rx="12" fill="#f4eeff" stroke="#6d3fd4" stroke-width="2" opacity="1" filter="url(#sh)"/><text x="600" y="186" text-anchor="middle" dominant-baseline="middle" font-size="14.5" font-weight="800" fill="#4f2da0">IR · Intermediate Relation</text><text x="600" y="208" text-anchor="middle" dominant-baseline="middle" font-size="10" font-weight="400" fill="#6b6357" font-family="ui-monospace,Menlo,monospace">theme ↦ ⟨semantic-join 命中集, 5W+1H⟩</text><rect x="436" y="224" width="104" height="64" rx="9" fill="#ddeff8" stroke="#1474a6" stroke-width="1.4" opacity="1"/><text x="488" y="246" text-anchor="middle" dominant-baseline="middle" font-size="12" font-weight="800" fill="#0f5e87">When</text><text x="488" y="266" text-anchor="middle" dominant-baseline="middle" font-size="8.6" font-weight="400" fill="#0f5e87">时效性/更新频率</text><rect x="548" y="224" width="104" height="64" rx="9" fill="#f6efdf" stroke="#9a6a12" stroke-width="1.4" opacity="1"/><text x="600" y="246" text-anchor="middle" dominant-baseline="middle" font-size="12" font-weight="800" fill="#7a530d">Where</text><text x="600" y="266" text-anchor="middle" dominant-baseline="middle" font-size="8.6" font-weight="400" fill="#7a530d">内网/外网/互联网</text><rect x="660" y="224" width="104" height="64" rx="9" fill="#e3f4f0" stroke="#0f7a6b" stroke-width="1.4" opacity="1"/><text x="712" y="246" text-anchor="middle" dominant-baseline="middle" font-size="12" font-weight="800" fill="#0b5e53">Who</text><text x="712" y="266" text-anchor="middle" dominant-baseline="middle" font-size="8.6" font-weight="400" fill="#0b5e53">数据拥有者/授权</text><rect x="436" y="296" width="104" height="64" rx="9" fill="#fbe7d3" stroke="#bc5a16" stroke-width="1.4" opacity="1"/><text x="488" y="318" text-anchor="middle" dominant-baseline="middle" font-size="12" font-weight="800" fill="#9a4d12">What</text><text x="488" y="338" text-anchor="middle" dominant-baseline="middle" font-size="8.6" font-weight="400" fill="#9a4d12">数据语义(=Σ)</text><rect x="548" y="296" width="104" height="64" rx="9" fill="#e6f4ec" stroke="#1a7d52" stroke-width="1.4" opacity="1"/><text x="600" y="318" text-anchor="middle" dominant-baseline="middle" font-size="12" font-weight="800" fill="#11603d">Why</text><text x="600" y="338" text-anchor="middle" dominant-baseline="middle" font-size="8.6" font-weight="400" fill="#11603d">集成逻辑(join 理由)</text><rect x="660" y="296" width="104" height="64" rx="9" fill="#ece4fb" stroke="#6d3fd4" stroke-width="1.4" opacity="1"/><text x="712" y="318" text-anchor="middle" dominant-baseline="middle" font-size="12" font-weight="800" fill="#4f2da0">How</text><text x="712" y="338" text-anchor="middle" dominant-baseline="middle" font-size="8.6" font-weight="400" fill="#4f2da0">物理访问方式</text><path d="M400 298 L432 298" fill="none" stroke="#1474a6" stroke-width="1.9" marker-end="url(#a)"/><text x="386" y="288" text-anchor="start" font-size="10" font-weight="700" fill="#1474a6" font-family="ui-monospace,Menlo,monospace">semantic join ⋈</text><path d="M768 298 L800 298" fill="none" stroke="#6d3fd4" stroke-width="1.9" marker-end="url(#a)"/><rect x="40" y="524" width="1120" height="56" rx="12" fill="#f1ebe0" stroke="#6d3fd4" stroke-width="1.4" stroke-dasharray="6 6" opacity="1"/><text x="600" y="554" text-anchor="middle" dominant-baseline="middle" font-size="12.5" font-weight="700" fill="#4f2da0" font-family="ui-monospace,Menlo,monospace">H 契约映射：𝓘 → IR(theme) → ⟨{Σ}, 5W1H⟩ → D₁ 取数 → 𝓔</text><path d="M600 498 L600 522" fill="none" stroke="#6d3fd4" stroke-width="1.6" stroke-dasharray="3 4" marker-end="url(#a)"/><rect x="40" y="604" width="1120" height="58" rx="12" fill="#fff" stroke="#0f7a6b" stroke-width="1.4" stroke-dasharray="5 5" opacity="1"/><text x="60" y="628" text-anchor="start" font-size="11" font-weight="700" fill="#0b5e53">P17 · IR 松耦合</text><text x="60" y="645" text-anchor="start" font-size="11" font-weight="700" fill="#0b5e53">数据源变更 / 产出格式变更互不传播，只需更新 IR</text></svg>