<svg viewBox="0 0 1200 760" width="100%" xmlns="http://www.w3.org/2000/svg" font-family="-apple-system,BlinkMacSystemFont,'Segoe UI','PingFang SC','Microsoft YaHei',Arial,sans-serif"><defs>
    <pattern id="grid" width="30" height="30" patternUnits="userSpaceOnUse"><path d="M30 0H0V30" fill="none" stroke="#efe8db" stroke-width="1"/></pattern>
    <filter id="sh" x="-12%" y="-12%" width="124%" height="124%"><feDropShadow dx="0" dy="3" stdDeviation="4.5" flood-color="#3c2d14" flood-opacity=".11"/></filter>
    <marker id="a" markerWidth="11" markerHeight="11" refX="7.5" refY="3.6" orient="auto"><path d="M0,0 L7.5,3.6 L0,7.2 Z" fill="#6d3fd4"/></marker><marker id="g" markerWidth="11" markerHeight="11" refX="7.5" refY="3.6" orient="auto"><path d="M0,0 L7.5,3.6 L0,7.2 Z" fill="#1a7d52"/></marker><marker id="o" markerWidth="11" markerHeight="11" refX="7.5" refY="3.6" orient="auto"><path d="M0,0 L7.5,3.6 L0,7.2 Z" fill="#bc5a16"/></marker><marker id="t" markerWidth="11" markerHeight="11" refX="7.5" refY="3.6" orient="auto"><path d="M0,0 L7.5,3.6 L0,7.2 Z" fill="#1474a6"/></marker><marker id="k" markerWidth="11" markerHeight="11" refX="7.5" refY="3.6" orient="auto"><path d="M0,0 L7.5,3.6 L0,7.2 Z" fill="#6b6357"/></marker><marker id="d" markerWidth="11" markerHeight="11" refX="7.5" refY="3.6" orient="auto"><path d="M0,0 L7.5,3.6 L0,7.2 Z" fill="#0f7a6b"/></marker><marker id="p" markerWidth="11" markerHeight="11" refX="7.5" refY="3.6" orient="auto"><path d="M0,0 L7.5,3.6 L0,7.2 Z" fill="#9a6a12"/></marker><marker id="r" markerWidth="11" markerHeight="11" refX="7.5" refY="3.6" orient="auto"><path d="M0,0 L7.5,3.6 L0,7.2 Z" fill="#c14545"/></marker>
  </defs><rect width="1200" height="760" rx="20" fill="#fffdf8"/><rect width="1200" height="760" rx="20" fill="url(#grid)" opacity=".7"/><text x="54" y="50" text-anchor="start" font-size="22" font-weight="800" fill="#221f1a">双子目标 Reward 训练环 — 从 goal 到验证 benchmark</text><text x="54" y="76" text-anchor="start" font-size="13" font-weight="400" fill="#6b6357">Harness 把 goal 分解成子目标（组织图）；正/反例顺序执行，把结果并行填进</text><text x="54" y="95" text-anchor="start" font-size="13" font-weight="400" fill="#6b6357">「格式化输出」容器里彼此独立、不对齐的子域小格 —— 每个子域各自的 benchmark 独立打分（P15）。</text><rect x="247" y="114" width="320" height="58" rx="12" fill="#f4eeff" stroke="#6d3fd4" stroke-width="1.8" opacity="1" filter="url(#sh)"/><text x="407" y="138.36" text-anchor="middle" dominant-baseline="middle" font-size="14.5" font-weight="800" fill="#4f2da0">用户 goal</text><text x="407" y="155.76" text-anchor="middle" dominant-baseline="middle" font-size="10.5" font-weight="400" fill="#6b6357">筛选带隙≈1.3eV材料·写可复现报告</text><path d="M407 172 L407 186" fill="none" stroke="#6d3fd4" stroke-width="1.8"/><path d="M108.5 186 L703.5 186" fill="none" stroke="#6d3fd4" stroke-width="1.8"/><path d="M108.5 186 L108.5 214" fill="none" stroke="#6d3fd4" stroke-width="1.8" marker-end="url(#a)"/><rect x="54" y="214" width="109" height="52" rx="12" fill="#fff" stroke="#6d3fd4" stroke-width="1.5" opacity="1" filter="url(#sh)"/><text x="108.5" y="240" text-anchor="middle" dominant-baseline="middle" font-size="12.5" font-weight="700" fill="#4f2da0">检索</text><path d="M227.5 186 L227.5 214" fill="none" stroke="#6d3fd4" stroke-width="1.8" marker-end="url(#a)"/><rect x="173" y="214" width="109" height="52" rx="12" fill="#fff" stroke="#6d3fd4" stroke-width="1.5" opacity="1" filter="url(#sh)"/><text x="227.5" y="240" text-anchor="middle" dominant-baseline="middle" font-size="12.5" font-weight="700" fill="#4f2da0">候选</text><path d="M346.5 186 L346.5 214" fill="none" stroke="#6d3fd4" stroke-width="1.8" marker-end="url(#a)"/><rect x="292" y="214" width="109" height="52" rx="12" fill="#fff" stroke="#6d3fd4" stroke-width="1.5" opacity="1" filter="url(#sh)"/><text x="346.5" y="240" text-anchor="middle" dominant-baseline="middle" font-size="12.5" font-weight="700" fill="#4f2da0">取物性</text><path d="M465.5 186 L465.5 214" fill="none" stroke="#6d3fd4" stroke-width="1.8" marker-end="url(#a)"/><rect x="411" y="214" width="109" height="52" rx="12" fill="#fff" stroke="#6d3fd4" stroke-width="1.5" opacity="1" filter="url(#sh)"/><text x="465.5" y="240" text-anchor="middle" dominant-baseline="middle" font-size="12.5" font-weight="700" fill="#4f2da0">筛选</text><path d="M584.5 186 L584.5 214" fill="none" stroke="#6d3fd4" stroke-width="1.8" marker-end="url(#a)"/><rect x="530" y="214" width="109" height="52" rx="12" fill="#fff" stroke="#6d3fd4" stroke-width="1.5" opacity="1" filter="url(#sh)"/><text x="584.5" y="240" text-anchor="middle" dominant-baseline="middle" font-size="12.5" font-weight="700" fill="#4f2da0">分析</text><path d="M703.5 186 L703.5 214" fill="none" stroke="#6d3fd4" stroke-width="1.8" marker-end="url(#a)"/><rect x="649" y="214" width="109" height="52" rx="12" fill="#fff" stroke="#6d3fd4" stroke-width="1.5" opacity="1" filter="url(#sh)"/><text x="703.5" y="240" text-anchor="middle" dominant-baseline="middle" font-size="12.5" font-weight="700" fill="#4f2da0">报告</text><path d="M407 266 L407 288" fill="none" stroke="#6b6357" stroke-width="1.6" stroke-dasharray="3 4" marker-end="url(#a)"/><text x="54" y="292" text-anchor="start" font-size="12.5" font-weight="700" fill="#6b6357" font-family="ui-monospace,Menlo,monospace">顺序执行：正例 / 反例</text><rect x="54" y="300" width="330" height="88" rx="12" fill="#e6f4ec" stroke="#1a7d52" stroke-width="1.7" opacity="1" filter="url(#sh)"/><circle cx="80" cy="326" r="15" fill="#1a7d52" stroke="#fff" stroke-width="2"/><text x="80" y="327" text-anchor="middle" dominant-baseline="middle" font-size="14" font-weight="800" fill="#fff">1</text><text x="100" y="331" text-anchor="start" font-size="13" font-weight="800" fill="#11603d">正例 rollout E⁺</text><text x="100" y="351" text-anchor="start" font-size="10.5" font-weight="400" fill="#11603d">成功轨迹：命中候选·数值合理</text><text x="100" y="367" text-anchor="start" font-size="10.5" font-weight="400" fill="#11603d">→ 保留有效行为模式</text><rect x="428" y="300" width="330" height="88" rx="12" fill="#fdecec" stroke="#c14545" stroke-width="1.7" opacity="1" filter="url(#sh)"/><circle cx="454" cy="326" r="15" fill="#c14545" stroke="#fff" stroke-width="2"/><text x="454" y="327" text-anchor="middle" dominant-baseline="middle" font-size="14" font-weight="800" fill="#fff">2</text><text x="474" y="331" text-anchor="start" font-size="13" font-weight="800" fill="#9a2f2f">反例 rollout E⁻</text><text x="474" y="351" text-anchor="start" font-size="10.5" font-weight="400" fill="#9a2f2f">失败轨迹：检索源错·格式偏差</text><text x="474" y="367" text-anchor="start" font-size="10.5" font-weight="400" fill="#9a2f2f">→ 提出缺失/纠正规则</text><path d="M384 326 L428 326" fill="none" stroke="#6b6357" stroke-width="1.8" marker-end="url(#a)"/><text x="406" y="292" text-anchor="start" font-size="10.3" font-weight="400" fill="#6b6357">两类轨迹并行填充下方各子域（非顺序依赖）</text><rect x="54" y="428" width="706" height="220" rx="12" fill="#fbfaf6" stroke="#e6dfd1" stroke-width="1.6" opacity="1" filter="url(#sh)"/><text x="70" y="452" text-anchor="start" font-size="12" font-weight="700" fill="#6b6357" font-family="ui-monospace,Menlo,monospace">σ_out 格式化输出 —— 子域各自独立、不对齐、不是表格</text><rect x="80" y="466" width="206" height="64" rx="10" fill="#ddeff8" stroke="#1474a6" stroke-width="1.5" opacity="1" filter="url(#sh)"/><text x="90" y="492.88" text-anchor="start" font-size="11.5" font-weight="800" fill="#0f5e87">数字子域</text><text x="90" y="507.88" text-anchor="start" font-size="9.6" font-weight="400" fill="#0f5e87">带隙数值·容差匹配</text><rect x="304" y="458" width="224" height="52" rx="10" fill="#f6efdf" stroke="#9a6a12" stroke-width="1.5" opacity="1" filter="url(#sh)"/><text x="314" y="479.84" text-anchor="start" font-size="11.5" font-weight="800" fill="#7a530d">总结子域</text><text x="314" y="494.84" text-anchor="start" font-size="9.6" font-weight="400" fill="#7a530d">内容摘要·rubric/LLM-judge</text><rect x="552" y="470" width="186" height="58" rx="10" fill="#e3f4f0" stroke="#0f7a6b" stroke-width="1.5" opacity="1" filter="url(#sh)"/><text x="562" y="494.36" text-anchor="start" font-size="11.5" font-weight="800" fill="#0b5e53">引用子域</text><text x="562" y="509.36" text-anchor="start" font-size="9.6" font-weight="400" fill="#0b5e53">检索命中率·evidence_ref</text><rect x="94" y="542" width="180" height="56" rx="10" fill="#fbe7d3" stroke="#bc5a16" stroke-width="1.5" opacity="1" filter="url(#sh)"/><text x="104" y="565.52" text-anchor="start" font-size="11.5" font-weight="800" fill="#9a4d12">结构子域</text><text x="104" y="580.52" text-anchor="start" font-size="9.6" font-weight="400" fill="#9a4d12">表格/字段完整性</text><rect x="294" y="562" width="190" height="48" rx="10" fill="#e6f4ec" stroke="#1a7d52" stroke-width="1.5" opacity="1" filter="url(#sh)"/><text x="304" y="582.16" text-anchor="start" font-size="11.5" font-weight="800" fill="#11603d">图表子域</text><text x="304" y="597.16" text-anchor="start" font-size="9.6" font-weight="400" fill="#11603d">可视化·坐标轴校验</text><rect x="512" y="544" width="226" height="64" rx="10" fill="#ece4fb" stroke="#6d3fd4" stroke-width="1.5" opacity="1" filter="url(#sh)"/><text x="522" y="570.88" text-anchor="start" font-size="11.5" font-weight="800" fill="#4f2da0">格式子域</text><text x="522" y="585.88" text-anchor="start" font-size="9.6" font-weight="400" fill="#4f2da0">引用规范·输出 schema</text><path d="M219 388 L219 412 L144 412 L144 426" fill="none" stroke="#1a7d52" stroke-width="1.5" stroke-dasharray="4 4" marker-end="url(#g)"/><path d="M593 388 L593 412 L354 412 L354 426" fill="none" stroke="#c14545" stroke-width="1.5" stroke-dasharray="4 4" marker-end="url(#r)"/><path d="M219 388 L219 412 L614 412 L614 426" fill="none" stroke="#1a7d52" stroke-width="1.5" stroke-dasharray="4 4" marker-end="url(#g)"/><path d="M407 648 L407 670" fill="none" stroke="#1474a6" stroke-width="1.8" stroke-dasharray="3 4" marker-end="url(#a)"/><circle cx="407" cy="690" r="20" fill="#fff" stroke="#1474a6" stroke-width="1.8"/><text x="407" y="691" text-anchor="middle" dominant-baseline="middle" font-size="17" font-weight="800" fill="#1474a6">Σ</text><text x="435" y="695" text-anchor="start" font-size="10.5" font-weight="700" fill="#1474a6" font-family="ui-monospace,Menlo,monospace">Σ w_d·r_d</text><rect x="800" y="114" width="346" height="542" rx="12" fill="#fbfaf6" stroke="#e6dfd1" stroke-width="1.4" opacity="1" filter="url(#sh)"/><text x="818" y="140" text-anchor="start" font-size="11" font-weight="400" fill="#6b6357" font-family="ui-monospace,Menlo,monospace">OPTIMIZER MODEL</text><rect x="816" y="158" width="314" height="92" rx="12" fill="#f4eeff" stroke="#6d3fd4" stroke-width="1.4" opacity="1" filter="url(#sh)"/><text x="834" y="182" text-anchor="start" font-size="13.5" font-weight="800" fill="#4f2da0">反思 reflection</text><text x="834" y="201" text-anchor="start" font-size="10.3" font-weight="400" fill="#4f2da0">优化器模型分析成功/失败 minibatch</text><text x="834" y="216" text-anchor="start" font-size="10.3" font-weight="400" fill="#4f2da0">提出 bounded add/delete/replace 编辑</text><text x="818" y="272" text-anchor="start" font-size="12" font-weight="700" fill="#221f1a">验证：分域 benchmark</text><rect x="816" y="286" width="314" height="94" rx="12" fill="#ddeff8" stroke="#1474a6" stroke-width="1.7" opacity="1" filter="url(#sh)"/><text x="834" y="310" text-anchor="start" font-size="12.5" font-weight="800" fill="#0f5e87">r_out 结果子目标</text><text x="834" y="329" text-anchor="start" font-size="10" font-weight="400" fill="#0f5e87">每个子域独立标注 benchmark</text><text x="834" y="344" text-anchor="start" font-size="10" font-weight="400" fill="#0f5e87">汇总：Σ w_d·r_d(output_d,benchmark_d)</text><rect x="816" y="388" width="314" height="94" rx="12" fill="#fff2e6" stroke="#bc5a16" stroke-width="1.7" opacity="1" filter="url(#sh)"/><text x="834" y="412" text-anchor="start" font-size="12.5" font-weight="800" fill="#9a4d12">r_proc 过程子目标</text><text x="834" y="431" text-anchor="start" font-size="10" font-weight="400" fill="#9a4d12">工具/数据源调用是否正确</text><text x="834" y="446" text-anchor="start" font-size="10" font-weight="400" fill="#9a4d12">逻辑分析·是否达进阶标准</text><path d="M973 250 L973 286" fill="none" stroke="#6d3fd4" stroke-width="2.1" marker-end="url(#a)"/><path d="M973 380 L973 388" fill="none" stroke="#6d3fd4" stroke-width="1.6" stroke-dasharray="3 4" marker-end="url(#a)"/><path d="M427 690 L780 690 L780 333 L816 333" fill="none" stroke="#1474a6" stroke-width="1.8" marker-end="url(#a)"/><rect x="800" y="498" width="346" height="88" rx="12" fill="#e3f4f0" stroke="#0f7a6b" stroke-width="1.8" opacity="1" filter="url(#sh)"/><text x="818" y="522" text-anchor="start" font-size="12.5" font-weight="800" fill="#0b5e53">双维 validation gate</text><text x="818" y="542" text-anchor="start" font-size="10" font-weight="400" fill="#0b5e53">r=α·r_out+β·r_proc 提升 → accept</text><text x="818" y="557" text-anchor="start" font-size="10" font-weight="400" fill="#0b5e53">否则 reject → rejected-edit buffer</text><path d="M973 482 L973 498" fill="none" stroke="#0f7a6b" stroke-width="2.1" marker-end="url(#a)"/><rect x="800" y="602" width="346" height="54" rx="12" fill="#fff" stroke="#0f7a6b" stroke-width="1.4" stroke-dasharray="5 5" opacity="1"/><text x="818" y="624" text-anchor="start" font-size="10.6" font-weight="700" fill="#0b5e53">P15 · 双子目标分解</text><text x="818" y="640" text-anchor="start" font-size="10.6" font-weight="700" fill="#0b5e53">提升归因清晰度、加速收敛</text><path d="M800 566 L780 566 L780 186 L567 186" fill="none" stroke="#bc5a16" stroke-width="2" stroke-dasharray="6 5" marker-end="url(#o)"/><text x="766" y="668" text-anchor="middle" dominant-baseline="middle" font-size="10" font-weight="700" fill="#9a4d12" transform="rotate(-90 766 668)">未达阈值 → 回到目标分解，重新切分/重跑</text></svg>